<svg data-v-423bf9ae="" xmlns="http://www.w3.org/2000/svg" viewBox="0 0 1035.1462328471082 60" class="font"><!----><!----><!----><g data-v-423bf9ae="" id="df995179-425a-4cdf-936d-6f348ecf35e0" fill="black" transform="matrix(5.847953085917131,0,0,5.847953085917131,-1.6959113502301761,-2.690058498123328)"><path d="M0.29 5.60C0.29 8.44 2.48 10.72 5.43 10.72C8.39 10.72 10.58 8.44 10.58 5.60C10.58 2.76 8.39 0.46 5.43 0.46C2.48 0.46 0.29 2.76 0.29 5.60ZM3.93 5.60C3.93 4.62 4.41 3.82 5.43 3.82C6.45 3.82 6.94 4.62 6.94 5.60C6.94 6.58 6.45 7.36 5.43 7.36C4.41 7.36 3.93 6.58 3.93 5.60ZM11.23 10.50L14.81 10.50L14.81 7.07L17.39 7.07L17.39 4.68L14.81 4.68L14.81 3.54L17.61 3.54L17.61 0.70L11.23 0.70ZM18.21 10.50L21.80 10.50L21.80 7.07L24.37 7.07L24.37 4.68L21.80 4.68L21.80 3.54L24.60 3.54L24.60 0.70L18.21 0.70ZM25.20 10.50L28.78 10.50L28.78 0.70L25.20 0.70ZM36.68 6.16C36.43 6.85 35.74 7.36 34.79 7.36C33.60 7.36 33.04 6.58 33.04 5.60C33.04 4.61 33.60 3.81 34.79 3.81C35.80 3.81 36.27 4.31 36.68 4.72C36.68 4.73 36.68 1.13 36.68 1.13C35.98 0.71 35.14 0.46 34.24 0.46C31.46 0.46 29.40 2.76 29.40 5.60C29.40 8.44 31.46 10.72 34.24 10.72C35.14 10.72 35.98 10.49 36.68 10.07C36.68 10.11 36.68 6.16 36.68 6.16ZM37.37 10.50L43.89 10.50L43.89 7.66L40.95 7.66L40.95 6.75L43.53 6.75L43.53 4.35L40.95 4.35L40.95 3.54L43.75 3.54L43.75 0.70L37.37 0.70ZM50.11 3.54L50.11 10.50L53.69 10.50L53.69 3.54L55.09 3.54L55.09 0.70L48.71 0.70L48.71 3.54ZM59.15 7.38L59.36 7.38L60.86 10.50L64.44 10.50L62.61 6.68C63.49 6.03 63.98 5.03 63.98 4.10C63.98 1.67 61.92 0.70 60.41 0.70L55.72 0.70L55.72 10.50L59.15 10.50ZM59.43 3.33C59.92 3.33 60.35 3.56 60.35 4.07C60.35 4.56 59.91 4.76 59.44 4.76L59.15 4.76L59.15 3.33ZM68.28 8.81L70.20 8.81L70.53 10.50L73.47 10.50L71.09 0.70L67.37 0.70L65.00 10.50L67.94 10.50ZM69.72 6.41L68.74 6.41L69.23 3.95ZM79.52 4.48L77.85 0.70L74.09 0.70L74.09 10.50L77.67 10.50L77.67 6.66L79.37 10.50L83.10 10.50L83.10 0.70L79.52 0.70ZM86.63 7.85C85.51 7.85 84.42 7.01 83.93 6.52L83.93 9.70C84.85 10.63 86.21 10.72 87.00 10.72C89.24 10.72 91.20 9.51 91.20 6.99C91.20 5.92 90.61 5.05 89.80 4.70C88.73 4.23 87.53 4.30 87.53 3.77C87.53 3.47 88.06 3.43 88.20 3.43C88.96 3.43 89.82 3.61 90.85 4.34L90.85 1.50C89.74 0.62 88.65 0.49 87.57 0.49C86.02 0.49 83.76 1.23 83.76 3.77C83.76 7.15 87.44 6.52 87.44 7.43C87.44 7.66 87.28 7.85 86.63 7.85ZM91.85 10.50L98.01 10.50L98.01 7.66L95.44 7.66L95.44 0.70L91.85 0.70ZM101.78 8.81L103.70 8.81L104.03 10.50L106.97 10.50L104.59 0.70L100.87 0.70L98.50 10.50L101.44 10.50ZM103.22 6.41L102.24 6.41L102.73 3.95ZM107.97 3.54L107.97 10.50L111.55 10.50L111.55 3.54L112.95 3.54L112.95 0.70L106.57 0.70L106.57 3.54ZM113.58 10.50L117.17 10.50L117.17 0.70L113.58 0.70ZM117.81 5.60C117.81 8.44 119.99 10.72 122.95 10.72C125.90 10.72 128.10 8.44 128.10 5.60C128.10 2.76 125.90 0.46 122.95 0.46C119.99 0.46 117.81 2.76 117.81 5.60ZM121.45 5.60C121.45 4.62 121.93 3.82 122.95 3.82C123.97 3.82 124.46 4.62 124.46 5.60C124.46 6.58 123.97 7.36 122.95 7.36C121.93 7.36 121.45 6.58 121.45 5.60ZM134.18 4.48L132.51 0.70L128.74 0.70L128.74 10.50L132.33 10.50L132.33 6.66L134.02 10.50L137.76 10.50L137.76 0.70L134.18 0.70ZM143.99 3.54L143.99 10.50L147.57 10.50L147.57 3.54L148.97 3.54L148.97 0.70L142.59 0.70L142.59 3.54ZM149.32 5.60C149.32 8.44 151.51 10.72 154.46 10.72C157.42 10.72 159.61 8.44 159.61 5.60C159.61 2.76 157.42 0.46 154.46 0.46C151.51 0.46 149.32 2.76 149.32 5.60ZM152.96 5.60C152.96 4.62 153.44 3.82 154.46 3.82C155.48 3.82 155.97 4.62 155.97 5.60C155.97 6.58 155.48 7.36 154.46 7.36C153.44 7.36 152.96 6.58 152.96 5.60ZM160.20 5.60C160.20 8.44 162.39 10.72 165.34 10.72C168.29 10.72 170.49 8.44 170.49 5.60C170.49 2.76 168.29 0.46 165.34 0.46C162.39 0.46 160.20 2.76 160.20 5.60ZM163.84 5.60C163.84 4.62 164.32 3.82 165.34 3.82C166.36 3.82 166.85 4.62 166.85 5.60C166.85 6.58 166.36 7.36 165.34 7.36C164.32 7.36 163.84 6.58 163.84 5.60ZM171.14 10.50L177.30 10.50L177.30 7.66L174.72 7.66L174.72 0.70L171.14 0.70Z"></path></g><!----><!----></svg>